<svg width="15" height="12" viewBox="0 0 15 12" fill="none" xmlns="http://www.w3.org/2000/svg">
<path d="M14.6158 8.25H14.2655V5.71641C14.2655 5.41875 14.1538 5.13281 13.9567 4.92188L11.7692 2.58047C11.5721 2.36953 11.305 2.25 11.0269 2.25H10.0612V1.125C10.0612 0.503906 9.59039 0 9.01012 0H3.4044C2.82412 0 2.35333 0.503906 2.35333 1.125V2.25H1.12708C1.03073 2.25 0.951904 2.33437 0.951904 2.4375V2.8125C0.951904 2.91563 1.03073 3 1.12708 3H7.08315C7.1795 3 7.25833 3.08437 7.25833 3.1875V3.5625C7.25833 3.66563 7.1795 3.75 7.08315 3.75H1.8278C1.73145 3.75 1.65262 3.83437 1.65262 3.9375V4.3125C1.65262 4.41563 1.73145 4.5 1.8278 4.5H6.38244C6.47879 4.5 6.55762 4.58437 6.55762 4.6875V5.0625C6.55762 5.16563 6.47879 5.25 6.38244 5.25H1.12708C1.03073 5.25 0.951904 5.33437 0.951904 5.4375V5.8125C0.951904 5.91563 1.03073 6 1.12708 6H5.68172C5.77807 6 5.8569 6.08437 5.8569 6.1875V6.5625C5.8569 6.66563 5.77807 6.75 5.68172 6.75H2.35333V9.75C2.35333 10.9922 3.29492 12 4.45547 12C5.61603 12 6.55762 10.9922 6.55762 9.75H9.36047C9.36047 10.9922 10.3021 12 11.4626 12C12.6232 12 13.5648 10.9922 13.5648 9.75H14.6158C14.8085 9.75 14.9662 9.58125 14.9662 9.375V8.625C14.9662 8.41875 14.8085 8.25 14.6158 8.25ZM4.45547 10.875C3.8752 10.875 3.4044 10.3711 3.4044 9.75C3.4044 9.12891 3.8752 8.625 4.45547 8.625C5.03575 8.625 5.50655 9.12891 5.50655 9.75C5.50655 10.3711 5.03575 10.875 4.45547 10.875ZM11.4626 10.875C10.8823 10.875 10.4115 10.3711 10.4115 9.75C10.4115 9.12891 10.8823 8.625 11.4626 8.625C12.0429 8.625 12.5137 9.12891 12.5137 9.75C12.5137 10.3711 12.0429 10.875 11.4626 10.875ZM13.2144 6H10.0612V3.375H11.0269L13.2144 5.71641V6Z" fill="#1A66FE"/>
</svg>
