<svg width="12" height="12" viewBox="0 0 12 12" fill="none" xmlns="http://www.w3.org/2000/svg">
<path d="M6.34619 0C3.2552 0 0.740479 2.6916 0.740479 6V8.4858C0.740479 9.1002 1.24331 9.6 1.86162 9.6H2.42219C2.57087 9.6 2.71345 9.53679 2.81858 9.42426C2.9237 9.31174 2.98276 9.15913 2.98276 9V5.9142C2.98276 5.75507 2.9237 5.60246 2.81858 5.48994C2.71345 5.37741 2.57087 5.3142 2.42219 5.3142H1.91319C2.22487 2.9922 4.09157 1.2 6.34619 1.2C8.60081 1.2 10.4675 2.9922 10.7792 5.3142H10.2702C10.1215 5.3142 9.97893 5.37741 9.87381 5.48994C9.76868 5.60246 9.70962 5.75507 9.70962 5.9142V9.6C9.70962 10.2618 9.20679 10.8 8.58848 10.8H7.46733V10.2H5.22505V12H8.58848C9.8251 12 10.8308 10.9236 10.8308 9.6C11.4491 9.6 11.9519 9.1002 11.9519 8.4858V6C11.9519 2.6916 9.43718 0 6.34619 0Z" fill="#1A66FE"/>
</svg>
